<svg width="1em" height="1em" viewBox="0 0 576 512" version="1.1" xmlns="http://www.w3.org/2000/svg" xmlns:xlink="http://www.w3.org/1999/xlink" xml:space="preserve" xmlns:serif="http://www.serif.com/" style="fill-rule:evenodd;clip-rule:evenodd;stroke-linejoin:round;stroke-miterlimit:2;"><path id="Rahmen" d="M0,96c0,-35.3 28.7,-64 64,-64l448,0c35.3,0 64,28.7 64,64l0,320c0,35.3 -28.7,64 -64,64l-448,0c-35.3,0 -64,-28.7 -64,-64l0,-320Zm544,320l0,-320c0,-17.7 -14.3,-32 -32,-32l-448,0c-17.7,0 -32,14.3 -32,32l0,320c0,17.7 14.3,32 32,32l448,0c17.7,0 32,-14.3 32,-32Z"/><g><g><path d="M265.025,326.915l-55.005,15.784c-2.414,-7.868 -3.868,-12.665 -4.363,-14.391c-5.117,-17.831 -6.378,-33.346 -3.784,-46.542c2.595,-13.196 10.673,-29.523 24.235,-48.979c13.561,-19.456 21.428,-31.908 23.6,-37.357c3.299,-8.573 3.731,-17.102 1.296,-25.586c-3.384,-11.792 -10.992,-20.543 -22.825,-26.253c-11.834,-5.71 -25.732,-6.274 -41.694,-1.694c-15.387,4.416 -26.999,12.495 -34.836,24.238c-7.837,11.744 -11.117,27.16 -9.842,46.25l-57.633,9.067c-5.805,-26.195 -1.112,-51.2 14.078,-75.015c15.19,-23.815 39.323,-40.468 72.398,-49.959c34.801,-9.986 65.094,-8.834 90.878,3.456c25.784,12.291 42.143,30.516 49.076,54.675c3.837,13.374 3.694,27.112 -0.431,41.214c-4.125,14.103 -15.604,34.985 -34.437,62.647c-9.745,14.314 -15.235,25.15 -16.47,32.509c-1.235,7.358 0.685,19.337 5.759,35.936Zm-31.608,97.322l-17.393,-60.614l60.614,-17.394l17.393,60.614l-60.614,17.394Z" style="fill-opacity:0.4;fill-rule:nonzero;"/></g><g><path d="M370.42,336.413l17.406,-164.047l15.342,-74.344l65.7,13.558l-15.343,74.344l-48.742,157.581l-34.363,-7.092Zm-30.042,78.972l12.533,-60.729l60.729,12.533l-12.533,60.729l-60.729,-12.533Z" style="fill-rule:nonzero;"/></g></g></svg>
